<?xml version="1.0" encoding="utf-8"?>
<svg viewBox="0 0 500 500" xmlns="http://www.w3.org/2000/svg">
  <defs/>
  <g transform="matrix(3.458574, 0, 0, 3.458574, -61.820034, -368.308929)" style="">
    <g>
      <g>
        <path fill="#000000" d="M82,119.3c-2.5,1.1-3.6,3.4-7.2,14c-1.9,5.6-4.2,11.8-5.2,13.8c-3.5,6.8-9,12.3-15.8,15.8c-1.9,1-8.2,3.4-13.9,5.2c-9,2.9-10.7,3.7-12.2,5.1c-2,1.9-2.7,4.3-1.9,6.9c1,3.2,2.3,4,14.4,8.1c13.7,4.6,15.5,5.5,21.3,10.3c5.7,4.8,8.7,10.2,13.4,24.4c3.7,11.2,4.5,12.6,7.1,14c2.8,1.5,7.3,0.1,9-2.7c0.4-0.7,2.5-6.3,4.5-12.5c4.4-13.1,5.9-16,11.6-21.6c5.6-5.6,8.5-7.1,21.6-11.6c6.1-2.1,11.7-4.1,12.5-4.5c2.8-1.7,4.2-6.1,2.7-9c-1.4-2.6-2.8-3.4-14-7.1c-14.2-4.8-19.6-7.7-24.4-13.4c-4.9-5.8-5.7-7.6-10.3-21.3c-2.4-7-4.2-11.6-4.9-12.3C88,118.8,84.8,118.1,82,119.3z"/>
      </g>
    </g>
  </g>
</svg>